<?xml version="1.0" encoding="UTF-8"?>
<svg id="_レイヤー_1" data-name="レイヤー 1" xmlns="http://www.w3.org/2000/svg" viewBox="0 0 1920 1080">
  <defs>
    <style>
      .cls-1 {
        fill: #00004b;
      }

      .cls-1, .cls-2 {
        stroke-width: 0px;
      }

      .cls-2 {
        fill: #fff;
      }

      .cls-3 {
        fill: #000;
        font-family: 'LINESeedJPApp_TTF-ExtraBold', 'LINE Seed JP App_TTF';
        font-size: 160.61505px;
        font-weight: 700;
        opacity: .05;
      }
    </style>
  </defs>
  <rect class="cls-2" width="1920" height="1080"/>
  <text class="cls-3" transform="translate(-284.08716 166.424)"><tspan x="0" y="0">Kinyo LT Kinyo LT Kinyo LT Kinyo LT</tspan></text>
  <text class="cls-3" transform="translate(-971.48509 378.8951)"><tspan x="0" y="0">Kinyo LT Kinyo LT Kinyo LT Kinyo LT</tspan></text>
  <text class="cls-3" transform="translate(-780.66895 591.36588)"><tspan x="0" y="0">Kinyo LT Kinyo LT Kinyo LT Kinyo LT</tspan></text>
  <text class="cls-3" transform="translate(-594.45074 803.83676)"><tspan x="0" y="0">Kinyo LT Kinyo LT Kinyo LT Kinyo LT</tspan></text>
  <text class="cls-3" transform="translate(-403.63464 1016.30762)"><tspan x="0" y="0">Kinyo LT Kinyo LT Kinyo LT Kinyo LT</tspan></text>
  <g>
    <g>
      <path class="cls-1" d="M634.15845,631.19912c-3.28223,0-4.9209-1.64307-4.9209-4.92041v-39.67285h-111.02295c-3.28223,0-4.9209-1.63867-4.9209-4.9209v-37.82764c0-3.27734,1.63867-4.9209,4.9209-4.9209h111.02295v-11.68652h-7.99609c-3.28223,0-4.9209-1.63867-4.9209-4.9209v-70.11963c-1.02832,1.43701-1.99902,2.8208-2.92139,4.15186-.92285,1.33594-1.89844,2.61426-2.92188,3.84424-.82178,1.22998-1.95068,1.84521-3.38281,1.84521-1.43701,0-2.66699-.81689-3.69043-2.46045l-15.68457-28.60156-11.99463,25.21875c2.04736-1.43213,3.99805-2.86865,5.84375-4.30566,1.84521-1.43213,3.58447-2.86865,5.22803-4.30566.81689-.81689,1.84521-1.22998,3.0752-1.22998,1.8457,0,3.07568,1.02832,3.69092,3.0752l13.83936,39.05811c1.02344,2.46045.4082,4.61328-1.84521,6.4585-3.89746,3.48877-8.40967,7.12646-13.53223,10.91748-5.12695,3.79639-10.4082,7.53516-15.83838,11.22559-5.43457,3.69043-10.86963,7.12646-16.2998,10.30273-5.43457,3.18115-10.50928,5.896-15.22314,8.1499-2.66699,1.22998-4.81982.41309-6.4585-2.46045l-19.68262-40.28809c-1.43701-3.07568-.51416-5.22852,2.76758-6.4585,7.1748-2.86865,14.65674-6.30469,22.45068-10.30273,7.78955-3.99805,15.27148-8.35156,22.45068-13.07031-7.1792-3.48389-15.02148-6.55957-23.52686-9.22656-8.51025-2.66211-16.8667-4.81494-25.06494-6.4585-3.89697-.61475-5.02637-2.66211-3.38281-6.15088l15.99219-35.6748c1.22998-2.66211,3.27734-3.69043,6.15088-3.0752,7.38086,1.64307,14.86279,3.64209,22.45068,5.99707,7.58252,2.35938,14.96387,5.18018,22.14307,8.45703.20166-1.02344.81689-2.04688,1.84521-3.0752,10.04297-9.63477,19.26953-20.70654,27.67871-33.21484,8.40479-12.50342,14.96387-24.60352,19.68311-36.29004,1.22998-2.66211,3.17627-3.89209,5.84326-3.69043l45.2085,4.61328c1.63867.20654,2.81592.82178,3.53711,1.84521.71582,1.02832.66309,2.35938-.15381,3.99805-1.84521,3.69043-4.30566,7.99609-7.38135,12.91699h16.2998l.30762-.30762v-.30762c4.09912-5.53564,7.48193-11.07178,10.14893-16.60742,1.22998-2.66211,3.17627-3.89209,5.84326-3.69043l45.82422,2.76807c1.84521.20654,3.12305.82129,3.84424,1.84521.71582,1.02832.56201,2.35938-.46143,3.99805-1.02832,2.05176-2.25879,4.10352-3.69043,6.15088-1.43701,2.05176-2.97461,4.10352-4.61328,6.15088h35.98242c3.27734,0,4.9209,1.64307,4.9209,4.92041v27.06396c0,3.28174-1.64355,4.92041-4.9209,4.92041h-39.67285v10.76416h33.21436c3.27734,0,4.9209,1.64355,4.9209,4.9209v17.8374c0,3.28174-1.64355,4.92041-4.9209,4.92041h-33.21436v11.07178h33.21436c3.27734,0,4.9209,1.64355,4.9209,4.92041v18.45264c0,3.28223-1.64355,4.9209-4.9209,4.9209h-33.21436v11.68652h43.05566c3.27734,0,4.9209,1.64355,4.9209,4.9209v27.06348c0,3.28223-1.64355,4.9209-4.9209,4.9209h-105.17969v11.68652h112.56104c3.27734,0,4.92041,1.64355,4.92041,4.9209v37.82764c0,3.28223-1.64307,4.9209-4.92041,4.9209h-112.56104v39.67285c0,3.27734-1.64307,4.92041-4.92041,4.92041h-45.82373ZM582.79858,406.69277c-1.02832,0-2.05176-.30713-3.07568-.92236-6.76562-4.09912-14.35352-7.78955-22.75781-11.07178-8.40967-3.27686-16.91504-5.94385-25.52637-7.99609-3.69043-1.02344-4.71875-3.0752-3.0752-6.15088l17.22217-34.75195c1.23047-2.25391,3.27734-3.27734,6.15088-3.07568,8.81299,1.64355,17.78467,3.99805,26.91016,7.07373,9.12061,3.0752,17.57812,6.66504,25.37207,10.76367,2.86914,1.64355,3.48389,3.89746,1.8457,6.76611l-19.37549,36.59766c-.82178,1.84521-2.05176,2.76758-3.69043,2.76758ZM695.97437,412.2289v-11.99414h-27.98633v11.99414h27.98633ZM695.97437,450.97939v-12.30176h-27.98633v12.30176h27.98633ZM695.97437,490.65224v-12.60938h-27.98633v12.60938h27.98633Z"/>
      <path class="cls-1" d="M849.13062,631.19912c-3.28174,0-4.92041-1.64307-4.92041-4.92041v-128.24561c-2.87354,3.89746-5.53613,7.1792-7.99609,9.84131-1.23047,1.23047-2.25879,1.84521-3.07568,1.84521-1.64355,0-2.76758-1.22998-3.38281-3.69043l-14.45459-59.66309c-.61523-2.46045-.10547-4.50732,1.5376-6.15088,5.3291-5.53564,10.25-11.88867,14.76221-19.06787,4.50732-7.17432,8.61133-14.86279,12.30176-23.06543,3.69043-8.19824,6.91943-16.76123,9.6875-25.68018,2.76807-8.91846,5.07471-17.68359,6.91992-26.29492.61475-3.0752,2.56104-4.30518,5.84326-3.69043l44.28613,7.68848c3.27734.61523,4.61328,2.56641,3.99805,5.84326-2.46045,10.87012-5.12744,21.27344-7.99609,31.21582-2.87354,9.94727-6.0498,19.52881-9.53369,28.75537v178.06738c5.94385-14.76221,9.84131-30.64844,11.68652-47.66943,1.84521-17.01562,2.76758-34.33887,2.76758-51.97461v-71.96484c0-3.27734,1.63867-4.9209,4.9209-4.9209h187.90869c3.27734,0,4.9209,1.64355,4.9209,4.9209v33.52197c0,3.28223-1.64355,4.9209-4.9209,4.9209h-145.16016v33.21436c0,12.30176-.25977,24.50244-.76904,36.59766-.51416,12.1001-1.43652,23.78662-2.76758,35.06006-1.33594,11.27832-3.07568,21.98926-5.22852,32.13818s-4.97363,19.42334-8.45752,27.83252c-1.02832,3.07568-3.18115,3.7915-6.45801,2.15283l-38.44287-20.91309v19.37549c0,3.27734-1.64355,4.92041-4.9209,4.92041h-43.05615ZM950.61987,411.92129c-3.28174,0-4.92041-1.63867-4.92041-4.9209v-6.4585h-25.21875c-3.28223,0-4.9209-1.63818-4.9209-4.92041v-32.90723c0-3.27734,1.63867-4.92041,4.9209-4.92041h25.21875v-10.76416c0-3.27734,1.63867-4.9209,4.92041-4.9209h42.1333c3.27734,0,4.9209,1.64355,4.9209,4.9209v10.76416h27.37109v-10.76416c0-3.27734,1.63867-4.9209,4.9209-4.9209h41.82568c3.27734,0,4.9209,1.64355,4.9209,4.9209v10.76416h25.52588c3.27734,0,4.9209,1.64307,4.9209,4.92041v32.90723c0,3.28223-1.64355,4.92041-4.9209,4.92041h-25.52588v6.4585c0,3.28223-1.64355,4.9209-4.9209,4.9209h-41.82568c-3.28223,0-4.9209-1.63867-4.9209-4.9209v-6.4585h-27.37109v6.4585c0,3.28223-1.64355,4.9209-4.9209,4.9209h-42.1333ZM971.22534,631.19912c-3.28223,0-4.9209-1.64307-4.9209-4.92041v-151.61865c0-3.27734,1.63867-4.9209,4.9209-4.9209h127.63037c3.27734,0,4.9209,1.64355,4.9209,4.9209v112.25293c0,9.02441-.61523,16.40576-1.8457,22.14307-1.22998,5.73779-3.28174,10.25-6.15088,13.53223-2.87354,3.27734-6.71777,5.48291-11.53271,6.61182-4.81982,1.12451-10.81689,1.69189-17.99121,1.69189-2.87354,0-4.71875-1.33594-5.53564-3.99805l-8.30371-26.14111c-1.23047-3.48389.20166-5.22852,4.30566-5.22852,3.27734-.20166,5.48291-.9707,6.61182-2.30664,1.12451-1.33105,1.69189-3.73828,1.69189-7.22705v-4.9209h-14.76221v41.51855c0,3.27734-1.64355,4.92041-4.9209,4.92041h-21.52783c-3.28223,0-4.9209-1.64307-4.9209-4.92041v-41.51855h-15.06934v45.20898c0,3.27734-1.64355,4.92041-4.9209,4.92041h-27.67871ZM1018.89429,519.25381v-13.53223h-15.06934v13.53223h15.06934ZM1018.89429,557.38906v-14.45459h-15.06934v14.45459h15.06934ZM1065.02612,519.25381v-13.53223h-14.76221v13.53223h14.76221ZM1065.02612,557.38906v-14.45459h-14.76221v14.45459h14.76221Z"/>
      <path class="cls-1" d="M1247.39868,631.19912c-3.28174,0-4.92041-1.64307-4.92041-4.92041v-67.04443h-99.33643c-3.28223,0-4.9209-1.63867-4.9209-4.9209v-163.92041c0-3.27686,1.63867-4.92041,4.9209-4.92041h99.33643v-38.44287c0-3.27734,1.63867-4.9209,4.92041-4.9209h48.89941c3.27734,0,4.9209,1.64355,4.9209,4.9209v38.44287h100.56641c3.27734,0,4.9209,1.64355,4.9209,4.92041v163.92041c0,3.28223-1.64355,4.9209-4.9209,4.9209h-100.56641v67.04443c0,3.27734-1.64355,4.92041-4.9209,4.92041h-48.89941ZM1242.47827,505.72158v-66.4292h-47.97656v66.4292h47.97656ZM1350.42603,505.72158v-66.4292h-49.20703v66.4292h49.20703Z"/>
    </g>
    <g>
      <path class="cls-1" d="M728.53662,722.13273c-4.3291,0-8.27393-.72168-11.83105-2.16455-3.55811-1.44385-6.59424-3.5083-9.10645-6.19531-2.51318-2.68701-4.4668-5.92139-5.85938-9.70361-1.39355-3.78125-2.08984-8.01123-2.08984-12.68945,0-4.67676.7207-8.91943,2.16455-12.72656,1.44287-3.80664,3.44531-7.05371,6.00879-9.74072,2.5625-2.68701,5.63574-4.75146,9.21826-6.19531,3.58301-1.44287,7.48877-2.16455,11.71924-2.16455,6.21973,0,11.50635,1.38086,15.86133,4.14258,4.354,2.76172,7.52588,6.68066,9.51709,11.75635.04883.1001.07471.24951.07471.44775,0,.49805-.25.82129-.74658.97021l-8.65869,2.38867-.37305.07471c-.44775,0-.74658-.22412-.896-.67188-1.44385-2.73584-3.396-4.82617-5.85938-6.27002-2.46289-1.44238-5.38721-2.16455-8.77051-2.16455-2.83643,0-5.37402.48535-7.61328,1.45557s-4.11816,2.32666-5.63574,4.06787c-1.51855,1.74268-2.68701,3.85693-3.5083,6.34473-.8208,2.48877-1.23145,5.25049-1.23145,8.28516,0,3.03613.41064,5.78516,1.23145,8.24805.82129,2.46338,2.00293,4.5791,3.5459,6.34473,1.5415,1.76709,3.42041,3.12354,5.63525,4.06836,2.21387.9458,4.73975,1.41797,7.57617,1.41797,3.78125,0,7.04102-.89551,9.77832-2.68701,2.73633-1.7915,4.77734-4.55322,6.12061-8.28564.19824-.646.62158-.89551,1.26904-.74609l8.58398,2.46289c.646.14941.89551.49805.74609,1.04541-.79639,2.78711-1.96631,5.33691-3.50781,7.65039-1.54297,2.31396-3.43359,4.30518-5.67285,5.97168s-4.84033,2.95996-7.80029,3.88135c-2.96143.92041-6.2583,1.38086-9.89014,1.38086Z"/>
      <path class="cls-1" d="M784.7417,721.83439c-3.33398,0-6.37012-.53564-9.10596-1.60498-2.7373-1.0708-5.07617-2.5625-7.0166-4.47852-1.94092-1.91504-3.43359-4.20459-4.47852-6.86719-1.04492-2.66162-1.56738-5.58545-1.56738-8.77051,0-3.18408.52246-6.10791,1.56738-8.77051,1.04492-2.66162,2.5376-4.96387,4.47852-6.9043,1.94043-1.94092,4.2793-3.44531,7.0166-4.51611,2.73584-1.06934,5.77197-1.60449,9.10596-1.60449,3.38379,0,6.43115.53516,9.14404,1.60449,2.71143,1.0708,5.03809,2.5752,6.979,4.51611,1.94092,1.94043,3.43359,4.24268,4.47852,6.9043,1.04492,2.6626,1.56738,5.58643,1.56738,8.77051,0,3.18506-.52246,6.10889-1.56738,8.77051-1.04492,2.6626-2.5376,4.95215-4.47852,6.86719-1.94092,1.91602-4.26758,3.40771-6.979,4.47852-2.71289,1.06934-5.76025,1.60498-9.14404,1.60498ZM784.7417,712.28019c1.69141,0,3.23438-.29883,4.62793-.896,1.39258-.59717,2.58691-1.42969,3.58301-2.50049.99463-1.06934,1.76562-2.35107,2.31396-3.84424.54688-1.49268.8208-3.13477.8208-4.92627s-.27393-3.44531-.8208-4.96387c-.54834-1.51709-1.31934-2.81055-2.31396-3.88135-.99609-1.06934-2.19043-1.90332-3.58301-2.50049-1.39355-.59717-2.93652-.89551-4.62793-.89551-1.69189,0-3.23486.29834-4.62744.89551-1.39404.59717-2.58838,1.43115-3.58301,2.50049-.99609,1.0708-1.76709,2.36426-2.31396,3.88135-.54834,1.51855-.82129,3.17236-.82129,4.96387s.27295,3.43359.82129,4.92627c.54688,1.49316,1.31787,2.7749,2.31396,3.84424.99463,1.0708,2.18896,1.90332,3.58301,2.50049,1.39258.59717,2.93555.896,4.62744.896Z"/>
      <path class="cls-1" d="M816.53906,721.0131c-.69727,0-1.04492-.34863-1.04492-1.04492v-39.78467c0-.69629.34766-1.04492,1.04492-1.04492h7.61377c.29834,0,.55957.07471.78369.22412.22412.14893.33594.42334.33594.8208l.22412,5.00098c1.49268-2.23926,3.42041-3.94287,5.78467-5.11279,2.36279-1.16846,4.86328-1.75391,7.50146-1.75391,3.13525,0,5.82227.65967,8.06152,1.97803,2.23926,1.31885,3.93018,3.22217,5.07568,5.70996,1.54199-2.53809,3.59424-4.45312,6.1582-5.74756,2.56201-1.29346,5.28662-1.94043,8.17334-1.94043,4.57764,0,8.17334,1.36914,10.78564,4.10498,2.6123,2.7373,3.91895,6.51953,3.91895,11.3457v26.19971c0,.69629-.34912,1.04492-1.04541,1.04492h-8.43457c-.69727,0-1.04492-.34863-1.04492-1.04492v-21.94482c0-3.48291-.63428-6.04639-1.90332-7.68848s-3.12354-2.46289-5.56104-2.46289c-1.24414,0-2.43848.23682-3.58252.70898-1.14551.47363-2.15332,1.19434-3.02295,2.16455-.87158.97021-1.56787,2.20215-2.09033,3.69482s-.78369,3.23535-.78369,5.2251v20.30273c0,.69629-.34863,1.04492-1.04492,1.04492h-8.43457c-.69727,0-1.04492-.34863-1.04492-1.04492v-21.94482c0-3.48291-.63477-6.04639-1.90332-7.68848-1.26904-1.64209-3.12354-2.46289-5.56104-2.46289-1.24463,0-2.43896.23682-3.58301.70898-1.14502.47363-2.16455,1.19434-3.06006,2.16455-.896.97021-1.60498,2.20215-2.12744,3.69482s-.78369,3.23535-.78369,5.2251v20.30273c0,.69629-.34863,1.04492-1.04492,1.04492h-8.36035Z"/>
      <path class="cls-1" d="M896.854,671.67424c-1.74268,0-3.19775-.53418-4.3667-1.60449-1.16992-1.06982-1.75391-2.4751-1.75391-4.21729,0-1.7417.58398-3.14697,1.75391-4.21729,1.16895-1.06982,2.62402-1.60498,4.3667-1.60498,1.74121,0,3.19678.53516,4.3667,1.60498,1.16846,1.07031,1.75391,2.47559,1.75391,4.21729,0,1.74219-.58545,3.14746-1.75391,4.21729-1.16992,1.07031-2.62549,1.60449-4.3667,1.60449ZM892.67383,721.0131c-.69727,0-1.04492-.34863-1.04492-1.04492v-39.78467c0-.69629.34766-1.04492,1.04492-1.04492h8.36035c.69629,0,1.04492.34863,1.04492,1.04492v39.78467c0,.69629-.34863,1.04492-1.04492,1.04492h-8.36035Z"/>
      <path class="cls-1" d="M914.17041,721.0131c-.69727,0-1.04492-.34863-1.04492-1.04492v-39.78467c0-.69629.34766-1.04492,1.04492-1.04492h7.61377c.29834,0,.55957.07471.78369.22412.22412.14893.33594.42334.33594.8208l.22412,4.77734c1.5415-2.23926,3.53271-3.90576,5.97119-5.00098,2.4375-1.09424,5.00098-1.64209,7.68799-1.64209,4.87646,0,8.646,1.36914,11.30859,4.10498,2.66162,2.7373,3.99316,6.51953,3.99316,11.3457v26.19971c0,.69629-.34863,1.04492-1.04492,1.04492h-8.43457c-.69727,0-1.04492-.34863-1.04492-1.04492v-21.94482c0-3.48291-.64746-6.04639-1.94092-7.68848-1.29443-1.64209-3.30957-2.46289-6.0459-2.46289-1.29443,0-2.5376.23682-3.73193.70898-1.19434.47363-2.26514,1.19434-3.20996,2.16455-.9458.97021-1.69189,2.20215-2.23926,3.69482-.54785,1.49268-.8208,3.23535-.8208,5.2251v20.30273c0,.69629-.34863,1.04492-1.04492,1.04492h-8.36035Z"/>
      <path class="cls-1" d="M981.42285,739.45012c-4.47852,0-8.52197-1.00781-12.12939-3.02344-3.6084-2.01514-6.23242-5.01367-7.87451-8.99414-.10059-.29883-.14941-.47363-.14941-.52246,0-.39893.24854-.67188.74658-.82129l6.79248-2.46289c.19824-.10059.34717-.14941.44775-.14941.34766,0,.646.22363.89551.67188.99512,1.74121,2.35156,3.13477,4.06836,4.17969,1.71631,1.04492,3.99316,1.56738,6.82959,1.56738,1.64209,0,3.18408-.18652,4.62793-.55957,1.44238-.37305,2.71143-.9585,3.80664-1.75391,1.09424-.79688,1.96533-1.8418,2.6123-3.13525.64648-1.29443.9707-2.86182.9707-4.70264v-3.80664c-1.54297,1.8916-3.43359,3.34619-5.67285,4.3667-2.23926,1.01904-4.75293,1.53027-7.53906,1.53027-2.98584,0-5.68555-.53564-8.09863-1.60498-2.41406-1.0708-4.4668-2.54932-6.1582-4.44141-1.69238-1.89062-2.99854-4.17969-3.91846-6.86719-.92139-2.68701-1.38086-5.62256-1.38086-8.80762,0-3.23389.45947-6.18262,1.38086-8.84521.91992-2.66162,2.22607-4.95068,3.91846-6.86719,1.69141-1.91504,3.74414-3.40771,6.1582-4.47852,2.41309-1.06934,5.11279-1.60449,8.09863-1.60449,2.93555,0,5.57275.57227,7.91211,1.7168,2.33838,1.14502,4.25488,2.76172,5.74756,4.85156l.29834-4.70264c0-.69629.37354-1.04492,1.11963-1.04492h7.53906c.74658,0,1.11963.34863,1.11963,1.04492v38.51562c0,3.3335-.53516,6.28174-1.60498,8.84521-1.07031,2.5625-2.58789,4.72705-4.55273,6.49414-1.9668,1.76562-4.30518,3.10938-7.0166,4.03027-2.71289.92041-5.71045,1.38135-8.99463,1.38135ZM982.46777,712.28019c1.69141,0,3.23438-.29883,4.62793-.896,1.39258-.59717,2.58691-1.42969,3.58301-2.50049.99463-1.06934,1.76562-2.35107,2.31396-3.84424.54688-1.49268.8208-3.13477.8208-4.92627s-.27393-3.44531-.8208-4.96387c-.54834-1.51709-1.31934-2.81055-2.31396-3.88135-.99609-1.06934-2.19043-1.90332-3.58301-2.50049-1.39355-.59717-2.93652-.89551-4.62793-.89551-1.69189,0-3.23486.29834-4.62744.89551-1.39404.59717-2.58838,1.43115-3.58301,2.50049-.99609,1.0708-1.76709,2.36426-2.31396,3.88135-.54834,1.51855-.82129,3.17236-.82129,4.96387s.27295,3.43359.82129,4.92627c.54688,1.49316,1.31787,2.7749,2.31396,3.84424.99463,1.0708,2.18896,1.90332,3.58301,2.50049,1.39258.59717,2.93555.896,4.62744.896Z"/>
      <path class="cls-1" d="M1055.31689,721.83439c-4.5791,0-8.42285-.9458-11.53223-2.83643-3.11084-1.89062-5.33691-4.67676-6.68066-8.36035-.05029-.09912-.07471-.22363-.07471-.37305,0-.44775.27295-.74658.82129-.89551l7.38965-2.01562.29834-.07471c.49707,0,.82129.25.97021.74658.99512,1.69238,2.20215,2.8623,3.62012,3.5083,1.41846.64746,3.02344.97021,4.81445.97021,1.7417,0,3.19678-.21094,4.3667-.63428,1.16895-.42236,1.75439-1.23193,1.75439-2.42578,0-.896-.47363-1.62939-1.41846-2.20215-.9458-.57129-2.5376-1.18164-4.77686-1.82861l-2.01562-.59717c-5.02686-1.44287-8.60938-3.37061-10.74854-5.78516-2.14014-2.4126-3.20947-5.21191-3.20947-8.39697,0-1.7915.38477-3.44531,1.15674-4.96387.771-1.51709,1.86621-2.81055,3.28418-3.88135,1.41846-1.06934,3.09766-1.91504,5.03857-2.53809,1.94092-.62158,4.10547-.93262,6.49414-.93262,4.03027,0,7.43848.8584,10.22559,2.57471,2.78662,1.7168,4.82617,4.3667,6.12109,7.94971.09912.19922.14893.37305.14893.52246,0,.39893-.24951.64746-.74609.74658l-7.38965,2.38818c-.10059.05029-.24951.07471-.44775.07471-.34912,0-.64746-.22363-.896-.67139-.74658-1.29346-1.69238-2.32568-2.83643-3.09766-1.14502-.771-2.6123-1.15723-4.40381-1.15723-1.34375,0-2.50049.22412-3.4707.67188-.9707.44775-1.45557,1.21973-1.45557,2.31396,0,.99609.49658,1.8042,1.49268,2.42578.99463.62256,2.66162,1.20703,5.00098,1.75391l1.94092.52246c2.58691.64746,4.75146,1.40674,6.49365,2.27686,1.74121.87109,3.14697,1.87891,4.21729,3.02295,1.06982,1.14551,1.84033,2.42578,2.31396,3.84424.47266,1.41797.70898,2.99854.70898,4.73975,0,1.94092-.41016,3.68311-1.23145,5.2251-.8208,1.54297-1.96631,2.86182-3.43359,3.95605-1.46826,1.09375-3.22217,1.94043-5.26221,2.5376-2.04102.59717-4.25439.896-6.64307.896Z"/>
      <path class="cls-1" d="M1099.57959,721.83439c-3.33398,0-6.37012-.53564-9.10596-1.60498-2.7373-1.0708-5.07617-2.5625-7.0166-4.47852-1.94092-1.91504-3.43359-4.20459-4.47852-6.86719-1.04492-2.66162-1.56738-5.58545-1.56738-8.77051,0-3.18408.52246-6.10791,1.56738-8.77051,1.04492-2.66162,2.5376-4.96387,4.47852-6.9043,1.94043-1.94092,4.2793-3.44531,7.0166-4.51611,2.73584-1.06934,5.77197-1.60449,9.10596-1.60449,3.38379,0,6.43115.53516,9.14404,1.60449,2.71143,1.0708,5.03809,2.5752,6.979,4.51611,1.94092,1.94043,3.43359,4.24268,4.47852,6.9043,1.04492,2.6626,1.56738,5.58643,1.56738,8.77051,0,3.18506-.52246,6.10889-1.56738,8.77051-1.04492,2.6626-2.5376,4.95215-4.47852,6.86719-1.94092,1.91602-4.26758,3.40771-6.979,4.47852-2.71289,1.06934-5.76025,1.60498-9.14404,1.60498ZM1099.57959,712.28019c1.69141,0,3.23438-.29883,4.62793-.896,1.39258-.59717,2.58691-1.42969,3.58301-2.50049.99463-1.06934,1.76562-2.35107,2.31396-3.84424.54688-1.49268.8208-3.13477.8208-4.92627s-.27393-3.44531-.8208-4.96387c-.54834-1.51709-1.31934-2.81055-2.31396-3.88135-.99609-1.06934-2.19043-1.90332-3.58301-2.50049-1.39355-.59717-2.93652-.89551-4.62793-.89551-1.69189,0-3.23486.29834-4.62744.89551-1.39404.59717-2.58838,1.43115-3.58301,2.50049-.99609,1.0708-1.76709,2.36426-2.31396,3.88135-.54834,1.51855-.82129,3.17236-.82129,4.96387s.27295,3.43359.82129,4.92627c.54688,1.49316,1.31787,2.7749,2.31396,3.84424.99463,1.0708,2.18896,1.90332,3.58301,2.50049,1.39258.59717,2.93555.896,4.62744.896Z"/>
      <path class="cls-1" d="M1150.0376,721.83439c-3.33398,0-6.37012-.53564-9.10596-1.60498-2.7373-1.0708-5.07617-2.5625-7.0166-4.47852-1.94092-1.91504-3.43359-4.20459-4.47852-6.86719-1.04492-2.66162-1.56738-5.58545-1.56738-8.77051,0-3.18408.52246-6.10791,1.56738-8.77051,1.04492-2.66162,2.5376-4.96387,4.47852-6.9043,1.94043-1.94092,4.2793-3.44531,7.0166-4.51611,2.73584-1.06934,5.77197-1.60449,9.10596-1.60449,3.38379,0,6.43115.53516,9.14404,1.60449,2.71143,1.0708,5.03809,2.5752,6.979,4.51611,1.94092,1.94043,3.43359,4.24268,4.47852,6.9043,1.04492,2.6626,1.56738,5.58643,1.56738,8.77051,0,3.18506-.52246,6.10889-1.56738,8.77051-1.04492,2.6626-2.5376,4.95215-4.47852,6.86719-1.94092,1.91602-4.26758,3.40771-6.979,4.47852-2.71289,1.06934-5.76025,1.60498-9.14404,1.60498ZM1150.0376,712.28019c1.69141,0,3.23438-.29883,4.62793-.896,1.39258-.59717,2.58691-1.42969,3.58301-2.50049.99463-1.06934,1.76562-2.35107,2.31396-3.84424.54688-1.49268.8208-3.13477.8208-4.92627s-.27393-3.44531-.8208-4.96387c-.54834-1.51709-1.31934-2.81055-2.31396-3.88135-.99609-1.06934-2.19043-1.90332-3.58301-2.50049-1.39355-.59717-2.93652-.89551-4.62793-.89551-1.69189,0-3.23486.29834-4.62744.89551-1.39404.59717-2.58838,1.43115-3.58301,2.50049-.99609,1.0708-1.76709,2.36426-2.31396,3.88135-.54834,1.51855-.82129,3.17236-.82129,4.96387s.27295,3.43359.82129,4.92627c.54688,1.49316,1.31787,2.7749,2.31396,3.84424.99463,1.0708,2.18896,1.90332,3.58301,2.50049,1.39258.59717,2.93555.896,4.62744.896Z"/>
      <path class="cls-1" d="M1181.83496,721.0131c-.69727,0-1.04492-.34863-1.04492-1.04492v-39.78467c0-.69629.34766-1.04492,1.04492-1.04492h7.61377c.29834,0,.55957.07471.78369.22412.22412.14893.33594.42334.33594.8208l.22412,4.77734c1.5415-2.23926,3.53271-3.90576,5.97119-5.00098,2.4375-1.09424,5.00098-1.64209,7.68799-1.64209,4.87646,0,8.646,1.36914,11.30859,4.10498,2.66162,2.7373,3.99316,6.51953,3.99316,11.3457v26.19971c0,.69629-.34863,1.04492-1.04492,1.04492h-8.43457c-.69727,0-1.04492-.34863-1.04492-1.04492v-21.94482c0-3.48291-.64746-6.04639-1.94092-7.68848-1.29443-1.64209-3.30957-2.46289-6.0459-2.46289-1.29443,0-2.5376.23682-3.73193.70898-1.19434.47363-2.26514,1.19434-3.20996,2.16455-.9458.97021-1.69189,2.20215-2.23926,3.69482-.54785,1.49268-.8208,3.23535-.8208,5.2251v20.30273c0,.69629-.34863,1.04492-1.04492,1.04492h-8.36035Z"/>
    </g>
  </g>
</svg>